<?xml version="1.0" standalone="no"?>
<!DOCTYPE svg PUBLIC "-//W3C//DTD SVG 20010904//EN"
 "http://www.w3.org/TR/2001/REC-SVG-20010904/DTD/svg10.dtd">
<svg version="1.0" xmlns="http://www.w3.org/2000/svg"
 width="512.000000pt" height="512.000000pt" viewBox="0 0 512.000000 512.000000"
 preserveAspectRatio="xMidYMid meet">
<metadata>
Created by potrace 1.16, written by Peter Selinger 2001-2019
</metadata>
<g transform="translate(0.000000,512.000000) scale(0.100000,-0.100000)"
fill="#000000" stroke="none">
<path d="M250 3623 c-44 -30 -51 -45 -47 -100 7 -100 108 -220 437 -517 91
-82 169 -153 175 -158 5 -5 -65 -83 -173 -191 l-182 -183 0 -52 c0 -65 34
-108 95 -122 61 -14 107 19 295 211 91 93 169 169 173 169 4 0 37 -22 74 -48
398 -283 857 -466 1276 -508 l67 -6 0 -285 0 -285 34 -34 c30 -30 40 -34 86
-34 46 0 56 4 86 34 l34 34 0 285 0 285 68 6 c405 40 806 195 1225 474 l128
85 167 -170 c190 -194 236 -227 297 -213 61 14 95 57 95 122 l0 52 -182 183
c-100 100 -180 184 -177 186 89 64 408 374 530 517 82 96 89 109 89 163 0 42
-5 54 -34 83 -30 30 -40 34 -86 34 -60 0 -39 17 -264 -224 -457 -491 -1023
-860 -1514 -987 -171 -44 -288 -59 -457 -60 -217 0 -388 29 -602 100 -458 154
-964 502 -1379 947 -223 240 -205 224 -260 224 -30 0 -59 -7 -74 -17z"/>
</g>
</svg>
