<?xml version="1.0" standalone="no"?>
<!DOCTYPE svg PUBLIC "-//W3C//DTD SVG 20010904//EN"
 "http://www.w3.org/TR/2001/REC-SVG-20010904/DTD/svg10.dtd">
<svg version="1.0" xmlns="http://www.w3.org/2000/svg"
 width="512.000000pt" height="512.000000pt" viewBox="0 0 512.000000 512.000000"
 preserveAspectRatio="xMidYMid meet">
<metadata>
Created by potrace 1.16, written by Peter Selinger 2001-2019
</metadata>
<g transform="translate(0.000000,512.000000) scale(0.100000,-0.100000)"
fill="#000000" stroke="none">
<path d="M1931 5099 c-241 -47 -465 -212 -585 -430 -93 -170 -108 -268 -104
-674 3 -290 5 -314 25 -368 12 -32 34 -77 48 -100 15 -23 42 -67 61 -97 49
-78 55 -105 64 -290 20 -394 128 -679 334 -879 l77 -74 -3 -89 -3 -90 -688
-248 c-378 -137 -716 -264 -750 -282 -115 -61 -224 -193 -272 -329 -9 -24 -43
-205 -76 -403 -49 -292 -60 -376 -57 -441 7 -122 57 -203 160 -261 l53 -29
2345 0 2345 0 53 29 c103 58 153 139 160 261 3 65 -8 149 -57 441 -33 198 -67
379 -76 403 -48 136 -157 268 -273 329 -35 19 -372 146 -750 282 l-687 248 -3
98 -3 97 55 49 c180 160 294 412 346 766 29 201 56 286 146 463 l59 114 3 383
c2 330 1 392 -13 440 -37 128 -142 265 -244 316 l-48 25 -5 70 c-9 124 -79
214 -203 260 -55 21 -70 21 -723 20 -367 -1 -687 -5 -711 -10z m1360 -180 c43
-15 86 -54 94 -86 3 -14 -1 -49 -10 -79 -13 -47 -14 -58 -1 -88 12 -28 24 -37
85 -61 89 -33 156 -93 202 -177 l34 -63 3 -345 c2 -211 -1 -355 -7 -370 -7
-19 -10 6 -11 95 0 100 -4 132 -24 188 -32 90 -75 155 -147 221 -77 71 -137
100 -419 197 l-235 81 -100 -5 c-92 -5 -112 -10 -250 -63 l-150 -57 -260 -6
-260 -6 -75 -36 c-100 -49 -168 -105 -224 -187 -62 -90 -96 -192 -97 -290 -1
-57 -3 -69 -9 -47 -12 46 -11 542 1 615 25 159 94 286 214 398 97 90 224 155
345 175 14 2 304 5 646 6 440 1 631 -2 655 -10z m-247 -749 c125 -43 249 -91
277 -106 63 -35 114 -91 148 -163 l26 -56 0 -390 c0 -339 -2 -403 -19 -490
-37 -199 -111 -377 -206 -496 -45 -58 -116 -118 -345 -293 -134 -103 -244
-140 -394 -134 -94 3 -101 5 -202 56 -92 46 -353 226 -426 293 -82 77 -171
230 -216 375 -58 184 -62 224 -62 669 l0 410 33 67 c41 83 120 158 197 187 50
19 78 21 273 21 246 0 256 2 463 79 87 32 150 50 181 50 33 1 109 -21 272 -79z
m-834 -2223 c36 -19 101 -48 145 -63 69 -23 96 -27 195 -27 179 1 320 48 478
160 l63 45 -3 -33 c-3 -32 -17 -43 -258 -206 -140 -94 -262 -172 -270 -172 -8
0 -130 78 -270 173 -239 161 -255 174 -258 205 l-3 33 58 -40 c32 -21 87 -55
123 -75z m-31 -272 c132 -88 241 -164 241 -168 0 -11 -291 -407 -299 -407 -8
1 -375 670 -370 675 9 8 165 63 175 62 7 -1 120 -74 253 -162z m1102 134 c46
-17 86 -32 88 -34 5 -5 -362 -675 -370 -675 -8 0 -299 397 -299 407 1 7 478
331 491 332 3 1 43 -13 90 -30z m-1956 -350 c-105 -212 -110 -232 -59 -276 23
-21 35 -23 145 -23 65 0 119 -3 119 -7 0 -5 -14 -30 -30 -58 -29 -49 -36 -87
-24 -120 5 -12 609 -571 839 -777 5 -4 -445 -7 -1023 -6 l-1032 3 -36 36 c-25
25 -37 47 -40 75 -4 24 19 183 55 404 52 308 66 374 91 425 30 63 90 131 151
172 32 21 929 354 937 348 2 -1 -40 -90 -93 -196z m2828 35 c219 -79 418 -152
443 -163 66 -30 159 -124 194 -196 24 -51 39 -121 90 -426 37 -221 60 -379 56
-403 -3 -28 -15 -50 -40 -75 l-36 -36 -1032 -3 c-574 -1 -1028 2 -1023 6 202
180 834 765 839 777 12 33 5 71 -24 120 -16 28 -30 53 -30 58 0 4 54 7 119 7
110 0 122 2 145 23 51 44 46 64 -58 275 -53 106 -96 195 -96 197 0 3 12 0 28
-6 15 -6 206 -75 425 -155z m-513 -150 c0 -1 -54 -4 -119 -6 -110 -3 -121 -5
-145 -27 -40 -38 -35 -87 19 -187 25 -45 45 -85 45 -88 0 -4 -421 -393 -499
-460 -20 -17 -16 -6 20 60 24 44 157 286 294 536 l250 456 68 -140 c37 -78 67
-142 67 -144z m-1730 -254 c156 -283 285 -519 288 -525 7 -14 -11 2 -280 249
-131 119 -238 220 -238 223 0 2 20 42 45 87 54 100 59 149 19 187 -24 22 -35
24 -145 27 -65 2 -119 6 -119 8 0 15 136 272 141 266 4 -4 134 -239 289 -522z
m701 217 l46 -62 -43 -64 c-24 -35 -44 -71 -44 -80 0 -9 22 -151 49 -315 l48
-299 -51 -93 c-28 -52 -53 -94 -56 -94 -3 0 -27 42 -55 94 l-49 93 48 306 c54
338 54 323 -8 407 l-33 45 46 62 c25 34 48 62 51 62 3 0 26 -28 51 -62z m-251
-239 c0 -25 -41 -274 -48 -291 -6 -15 -16 -2 -50 58 l-43 76 63 85 c60 81 78
98 78 72z m484 -79 l57 -76 -42 -77 c-23 -42 -43 -75 -46 -72 -8 8 -52 299
-46 309 6 11 6 11 77 -84z"/>
</g>
</svg>
